PathFileType	4	(X/Y/Z)	RBDS011\RBDS011runT25.trc
DataRate	CameraRate	NumFrames	NumMarkers	Units	OrigDataRate	OrigDataStartFrame	OrigNumFrames
150.000000	150.000000	5	33	mm	150.000000	1125	4500
Frame#	Time	L.ASIS			L.Heel.Bottom			L.Heel.Lateral			L.Heel.Top			L.Iliac.Crest			L.MT1			L.MT5			L.PSIS			L.Shank.Bottom.Lateral			L.Shank.Bottom.Medial			L.Shank.Top.Lateral			L.Shank.Top.Medial			L.Thigh.Bottom.Lateral			L.Thigh.Bottom.Medial			L.Thigh.Top.Lateral			L.Thigh.Top.Medial			R.ASIS			R.ASY			R.Heel.Bottom			R.Heel.Lateral			R.Heel.Top			R.Iliac.Crest			R.MT1			R.MT5			R.PSIS			R.Shank.Bottom.Lateral			R.Shank.Bottom.Medial			R.Shank.Top.Lateral			R.Shank.Top.Medial			R.Thigh.Bottom.Lateral			R.Thigh.Bottom.Medial			R.Thigh.Top.Lateral			R.Thigh.Top.Medial			
		X1	Y1	Z1	X2	Y2	Z2	X3	Y3	Z3	X4	Y4	Z4	X5	Y5	Z5	X6	Y6	Z6	X7	Y7	Z7	X8	Y8	Z8	X9	Y9	Z9	X10	Y10	Z10	X11	Y11	Z11	X12	Y12	Z12	X13	Y13	Z13	X14	Y14	Z14	X15	Y15	Z15	X16	Y16	Z16	X17	Y17	Z17	X18	Y18	Z18	X19	Y19	Z19	X20	Y20	Z20	X21	Y21	Z21	X22	Y22	Z22	X23	Y23	Z23	X24	Y24	Z24	X25	Y25	Z25	X26	Y26	Z26	X27	Y27	Z27	X28	Y28	Z28	X29	Y29	Z29	X30	Y30	Z30	X31	Y31	Z31	X32	Y32	Z32	X33	Y33	Z33	

1126	7.500000000000001	2221.499673513707	968.9463782671925	903.6356266297742	1807.516526405049	69.03893200374083	1002.955028244961	1835.114330923092	78.42256805883443	964.3396531155063	1826.541325293046	114.5315237719471	1005.028004351264	2160.318348011807	1032.074137250914	877.9784140555954	2028.990024446094	40.11938292953528	1046.984487724652	1999.12495202386	40.96197400554194	932.7782998866727	2060.959203460186	1004.633330990676	994.725228180705	1934.66143999601	186.9970643071342	944.4509741352002	1901.720152742296	214.3473358170099	980.0203765356923	1968.733605868931	256.2152851634482	923.6031154784757	1938.552759929182	283.3799526406964	959.5935763150609	2127.333167454957	583.8257419910717	879.9150344631454	2066.964951707365	582.2299695867065	920.4040831526222	2111.493791924052	692.151511614045	865.9713815951441	2057.568775081551	691.7981578521294	908.6106635634872	2238.259296673454	959.0895984280277	1152.218631408803	2081.435081624431	166.0436573565692	1104.187757993623	1913.301575746608	254.1975063215775	1082.716047293676	1940.727643477226	249.4785168027301	1126.267576765146	1956.092099318308	280.8027081370483	1085.792488033616	2187.46895725963	1014.46855264314	1194.746410641962	2077.08840204264	99.81798524581774	1053.644418515031	2044.900941586953	112.542977020474	1166.054479306705	2066.201074244053	1002.942581177374	1093.884035685944	2050.386770535984	301.8525888812742	1144.095509165657	2037.804988594871	331.0605906736969	1103.719413420506	2111.742199559238	357.393777434326	1162.831112581846	2093.764401134389	386.427131077432	1121.769215650216	2299.915358043508	603.2280686087474	1208.544972732163	2247.639634462757	576.590729459939	1164.190652059838	2241.336310536437	694.9528118633223	1219.162319861955	2189.666127391147	669.3020872255599	1180.987389346651	
1127	7.506666666666667	2222.44727558934	972.9258479503612	903.883706484708	1792.721466797595	75.79270106116607	1002.828630774609	1820.482363432781	83.97880542048763	964.077455834617	1812.834036675485	120.6998725955332	1004.382758326715	2162.942804905148	1036.396284505275	878.4652773726839	2012.413782128394	40.50004825479107	1046.919986690672	1982.677812702563	41.3155298410132	932.7669781525349	2062.211032420333	1009.481683975516	994.909914435369	1920.104096715971	192.2501686333214	944.0311982304718	1887.488384325487	219.293313796819	980.110757051424	1954.190725381956	261.6503542147968	923.660869952146	1924.212187413178	288.4611669887357	960.0467927307866	2116.885781419957	588.737322622708	880.8830266149777	2057.076900296402	589.2815036739828	922.2146048551251	2104.607169956813	697.510387457924	866.9935887233385	2051.218640293095	699.0834468959391	910.3547806264602	2239.145118217598	964.7895584548164	1152.278069188709	2104.069413271289	158.699856583411	1104.450581988048	1931.089379301608	236.2995840543996	1080.719082804337	1958.326198658369	233.366401178975	1124.53933455874	1972.17745979354	265.4655085494566	1084.151621663703	2188.868879485291	1020.858457044016	1195.208044675903	2104.375564149818	92.07811912444959	1054.252931611619	2070.111934255151	103.2826244689385	1166.121322355353	2067.154634894232	1008.574557067661	1094.487468529317	2064.717464597543	292.6846820636043	1142.856603980103	2050.928504585551	320.8542358046421	1102.147588693472	2122.60968680996	351.8499431596697	1161.676758834217	2103.443395934448	379.5102249761371	1120.198994137535	2303.544705919985	610.2073999817787	1208.433811055527	2251.268620996439	583.2415371562929	1164.364030395777	2244.271011204779	701.3258821603473	1219.766848181458	2192.588257861578	675.4187817552793	1181.735165227011	
1128	7.513333333333334	2223.60723446781	976.9606962715629	904.2960773763477	1778.481805562129	83.25581096416572	1002.757461948204	1806.377403337964	90.13651412742918	963.8550606991604	1799.824458555795	127.462769007509	1003.789555601336	2165.881117195004	1041.057570984862	878.9323538089434	1996.071264641453	40.88829577199764	1046.855430471604	1966.449139625538	41.75783777357244	932.7129723152343	2063.673874076932	1014.583749869189	995.1072513250174	1906.005084874877	197.951803341995	943.5740587237632	1873.804850604773	224.620327025928	980.2644704423672	1940.08373852089	267.5857289719792	923.7590331104819	1910.360443700879	293.9642045190222	960.6187197474593	2106.804692025258	594.1398503100867	881.7761078677353	2047.556225392135	596.7782765702921	923.8580281439378	2098.092711310041	703.2708819375596	867.9851297591104	2045.234728177507	706.7161423318952	911.9583227713482	2240.089717273574	970.6930810538279	1152.511971856224	2127.225448290795	151.7179344400018	1104.815017356112	1950.025518562988	218.2977040209207	1078.428635251023	1976.870083845482	217.2658006703892	1122.559105749679	1989.223314338586	249.9566698607662	1082.181267197731	2190.189360665759	1027.509122126498	1195.717795030396	2132.320127422402	84.83129012504945	1055.231319881588	2095.87947754695	94.68288963512828	1166.46147584384	2068.260759937503	1014.393650226675	1095.096830419145	2079.504389106039	283.4014997667962	1141.451135708604	2064.619898502996	310.4230263113504	1100.357492289894	2133.625038143735	346.0540133158806	1160.379600917124	2113.40486648537	372.2184093073074	1118.429539613985	2306.504868020209	616.9577112339427	1208.180376552538	2254.093851980746	589.7921229344065	1164.494039780787	2246.801715477789	707.6515264842747	1220.280211816565	2195.023340057264	681.6374606378795	1182.433389560706	
1129	7.52	2224.958123436769	980.9594095929475	904.8976003240289	1764.850819168563	91.37790513665534	1002.711189121325	1792.853773055896	96.86690465724131	963.6527326648409	1787.553838634944	134.7662546485339	1003.244352385864	2169.119548901152	1046.032602093738	879.3896921289195	1980.00676689356	41.29760965731098	1046.787083462241	1950.489344834368	42.32436470694933	932.6118820317894	2065.32596120501	1019.88217737292	995.2922153615837	1892.457080680869	204.0271912750667	943.0843858804684	1860.74249235727	230.2626295389481	980.4640220347627	1926.505821100843	273.9348851188207	923.8913923079803	1897.086065699517	299.8171543643979	961.2886588448079	2097.184480413053	599.9289435958008	882.5877072079569	2038.472053302564	604.5916993572725	925.2962261814465	2092.000104406215	709.3240242224143	868.9330011759553	2039.649535395105	714.5662656367689	913.3905514984363	2241.070258943131	976.7416884855597	1152.920885704392	2150.868919671099	145.1953725595054	1105.234434144283	1970.140557161485	200.3736224244591	1075.926196390683	1996.385938137677	201.3328835330099	1120.390356185871	2007.260669284691	234.4452484576306	1079.937673518871	2191.388630871725	1034.353128334359	1196.258579342454	2160.849603772583	78.21554117063977	1056.509028093633	2122.162863771813	86.83536675852821	1167.031554592234	2069.503134433413	1020.334278001061	1095.674116147275	2094.796518886494	274.0792958077052	1139.927457988298	2078.913896840474	299.8712388593856	1098.42076871647	2144.85758526402	340.0284487751333	1158.993638324548	2123.703402586201	364.6093329820317	1116.545162667898	2308.762253151686	623.3906046830318	1207.780569426802	2256.084097400239	596.1372201783597	1164.580752043202	2248.895512300624	713.8504488305691	1220.647819182091	2196.934022845506	687.8559762222894	1183.049974229869	
1130	7.526666666666667	2226.472117246389	984.8417865157427	905.6971731211682	1751.870095204879	100.0973653985523	1002.647985812684	1779.956195869439	104.1323362237856	963.4402817738322	1776.045539239735	142.5492982854402	1002.730689770822	2172.635396966812	1051.272525450071	879.8548949171792	1964.258410234362	41.75734154477603	1046.706413285797	1934.849386501687	43.05979968172597	932.4607182426362	2067.141222890017	1025.312947971783	995.4413070282391	1879.547878497624	210.3935500584293	942.5659475511203	1848.359772430621	236.1494587906732	980.6817834357345	1913.543846144854	280.6016827960067	924.0455012161982	1884.464036309294	305.9422058487994	962.0227452844056	2088.102886980788	605.9895603534746	883.3289134265879	2029.885893101634	612.5888803101883	926.5257301788407	2086.362278094202	715.5520947612521	869.8351174152375	2034.487655123962	722.5010126242031	914.6484995375496	2242.071435994844	982.8686262812981	1153.485854054764	2174.949763160606	139.23942232589	1105.650840764802	1991.428778204814	182.7211646378612	1073.309331728743	2016.881160505186	185.7252703507274	1118.110964198294	2026.290169157159	219.1093628288234	1077.502243343131	2192.4589302854	1041.317607485093	1196.807467809812	2189.866654899382	72.38635890015041	1057.97691028835	2148.922249490903	79.82550284218193	1167.758747954899	2070.866639006291	1026.334574827592	1096.183821156266	2110.627139213163	264.8088208951068	1138.344922133247	2093.817404760319	289.3173907880467	1096.424361017434	2156.366475486112	333.815333863351	1157.58501150946	2134.371739956938	356.7605836988477	1114.645401752058	2310.283472866645	629.4277631417065	1207.239847367047	2257.215989273096	602.1848507810895	1164.623431242413	2250.518182001094	719.8469563384912	1220.823384974497	2198.285816251923	693.9766186568695	1183.554843368363	
